<?xml version="1.0" encoding="utf-8"?>
<!-- Generator: Adobe Illustrator 27.0.0, SVG Export Plug-In . SVG Version: 6.00 Build 0)  -->
<svg version="1.1" id="Layer_1" xmlns="http://www.w3.org/2000/svg" xmlns:xlink="http://www.w3.org/1999/xlink" x="0px" y="0px"
	 viewBox="0 0 133 20" style="enable-background:new 0 0 133 20;" xml:space="preserve">
<style type="text/css">
	.st0{fill:#FFFFFF;}
</style>
<g>
	<path class="st0" d="M103.51,4.53c-2.04,0-3.64,0.66-4.78,1.99c-1.11,1.29-1.67,3.08-1.67,5.37s0.57,4.25,1.72,5.53
		c1.15,1.33,2.74,1.99,4.78,1.99c1.68,0,3.08-0.41,4.19-1.24c1.11-0.79,1.86-1.93,2.26-3.44h-2.69c-0.43,0-0.76,0.09-0.99,0.27
		c-0.23,0.18-0.37,0.32-0.4,0.43c-0.11,0.11-0.21,0.21-0.3,0.3c-0.09,0.09-0.19,0.15-0.3,0.19c-0.43,0.25-0.95,0.38-1.56,0.38
		c-0.93,0-1.63-0.29-2.1-0.86c-0.5-0.54-0.77-1.36-0.81-2.47h9.3c0.03-0.07,0.05-0.2,0.05-0.38V12c0-2.36-0.57-4.21-1.72-5.53
		c-1.18-1.29-2.85-1.93-5-1.93L103.51,4.53z M100.88,10.55c0.04-0.93,0.3-1.65,0.81-2.15c0.5-0.5,1.15-0.75,1.93-0.75
		c0.86,0,1.52,0.25,1.99,0.75c0.43,0.47,0.68,1.18,0.75,2.15C106.36,10.55,100.88,10.55,100.88,10.55z"/>
	<path class="st0" d="M50.84,4.53h-1.89c-1.31,0-2.51,0.47-3.43,1.27c-0.93-0.79-2.13-1.27-3.44-1.27h-1.89
		c-2.92,0-5.29,2.37-5.29,5.29v9.33h3.71v-8.98c0-0.7,0.28-1.33,0.74-1.79c0.44-0.44,1.03-0.71,1.68-0.74
		c1.44-0.06,2.63,1.2,2.63,2.64v8.85h3.71v-8.96c0-0.7,0.28-1.33,0.74-1.79c0.44-0.44,1.04-0.72,1.71-0.74
		c1.43-0.04,2.61,1.21,2.61,2.65v6.59c0,1.25,1.01,2.27,2.27,2.27h1.44V9.82c0-2.92-2.37-5.29-5.29-5.29L50.84,4.53z"/>
	<path class="st0" d="M118.82,4.53h-1.89c-2.92,0-5.29,2.37-5.29,5.29v9.32h3.71v-8.97c0-1.4,1.13-2.53,2.53-2.53l0,0
		c1.4,0,2.53,1.13,2.53,2.53v6.71c0,1.25,1.01,2.27,2.27,2.27h1.44V9.82C124.12,6.9,121.75,4.53,118.82,4.53L118.82,4.53z"/>
	<path class="st0" d="M23.56,0.31H18.2c-0.54,0-1,0.19-1.38,0.57s-0.57,0.84-0.57,1.38v16.26L8.44,7.83l7.47-7.52h-4.82L3.84,7.94
		V0.31H1.95c-0.54,0-1,0.19-1.38,0.57S0,1.72,0,2.26v16.66h3.84v-6.55c0-0.65,0.35-1.09,1.06-1.33c0.7-0.23,1.47,0.19,2.3,1.27
		l4.71,6.6h10.63c1.77,0,3.08-0.13,3.95-0.38c0.9-0.25,1.75-0.68,2.54-1.3c0.94-0.72,1.69-1.77,2.27-3.14
		c0.5-1.33,0.76-2.83,0.76-4.49c0-3.1-0.7-5.45-2.11-7.03c-1.41-1.52-3.54-2.27-6.38-2.27L23.56,0.31z M26.97,14.16
		c-0.83,0.94-2.13,1.41-3.9,1.41h-3.08V3.56h3.57c1.59,0,2.74,0.49,3.46,1.46c0.76,0.97,1.14,2.51,1.14,4.6S27.76,13.3,26.97,14.16z
		"/>
	<path class="st0" d="M65.27,4.23c-4.27,0-7.73,3.45-7.73,7.73s3.46,7.73,7.73,7.73S73,16.23,73,11.96S69.54,4.23,65.27,4.23z
		 M65.27,16.11c-2.3,0-4.15-1.86-4.15-4.15s1.86-4.15,4.15-4.15s4.15,1.86,4.15,4.15S67.56,16.11,65.27,16.11z"/>
	<path class="st0" d="M129.24,7.64v5.56c0,1.25,1.01,2.27,2.27,2.27H133v3.71h-2.21c-2.91,0-5.26-2.35-5.26-5.26V0.31h3.71v4.2H133
		v1.4c0,0.96-0.78,1.73-1.73,1.73H129.24z"/>
	<path class="st0" d="M90.35,4.53h-1.89c-1.31,0-2.51,0.47-3.43,1.27c-0.93-0.79-2.13-1.27-3.44-1.27H79.7
		c-2.92,0-5.29,2.37-5.29,5.29v9.33h3.71v-8.98c0-0.7,0.28-1.33,0.74-1.79s1.03-0.71,1.68-0.74c1.44-0.06,2.63,1.2,2.63,2.64v8.85
		h3.71v-8.96c0-0.7,0.28-1.33,0.74-1.79c0.44-0.44,1.04-0.72,1.71-0.74c1.43-0.04,2.61,1.21,2.61,2.65v6.59
		c0,1.25,1.01,2.27,2.27,2.27h1.44V9.82C95.65,6.9,93.28,4.53,90.35,4.53L90.35,4.53z"/>
</g>
</svg>
