<?xml version="1.0" encoding="UTF-8"?><svg id="Layer_1" xmlns="http://www.w3.org/2000/svg" viewBox="0 0 133 20"><defs><style>.cls-1{fill:#575755;}</style></defs><path class="cls-1" d="M103.51,4.53c-2.04,0-3.64,.66-4.78,1.99-1.11,1.29-1.67,3.08-1.67,5.37s.57,4.25,1.72,5.53c1.15,1.33,2.74,1.99,4.78,1.99,1.68,0,3.08-.41,4.19-1.24,1.11-.79,1.86-1.93,2.26-3.44h-2.69c-.43,0-.76,.09-.99,.27-.23,.18-.37,.32-.4,.43-.11,.11-.21,.21-.3,.3-.09,.09-.19,.15-.3,.19-.43,.25-.95,.38-1.56,.38-.93,0-1.63-.29-2.1-.86-.5-.54-.77-1.36-.81-2.47h9.3c.03-.07,.05-.2,.05-.38v-.59c0-2.36-.57-4.21-1.72-5.53-1.18-1.29-2.85-1.93-5-1.93h.02Zm-2.63,6c.04-.93,.3-1.65,.81-2.15,.5-.5,1.15-.75,1.93-.75,.86,0,1.52,.25,1.99,.75,.43,.47,.68,1.18,.75,2.15,0,0-5.48,0-5.48,0Z"/><path class="cls-1" d="M50.84,4.53h-1.89c-1.31,0-2.51,.47-3.43,1.27-.93-.79-2.13-1.27-3.44-1.27h-1.89c-2.92,0-5.29,2.37-5.29,5.29v9.33h3.71V10.17c0-.7,.28-1.33,.74-1.79,.44-.44,1.03-.71,1.68-.74,1.44-.06,2.63,1.2,2.63,2.64v8.85h3.71V10.17c0-.7,.28-1.33,.74-1.79,.44-.44,1.04-.72,1.71-.74,1.43-.04,2.61,1.21,2.61,2.65v6.59c0,1.25,1.01,2.27,2.27,2.27h1.44V9.82c0-2.92-2.37-5.29-5.29-5.29,0,0,0,0-.01,0Z"/><path class="cls-1" d="M118.82,4.53h-1.89c-2.92,0-5.29,2.37-5.29,5.29v9.32h3.71V10.17c0-1.4,1.13-2.53,2.53-2.53h0c1.4,0,2.53,1.13,2.53,2.53v6.71c0,1.25,1.01,2.27,2.27,2.27h1.44V9.82c0-2.92-2.37-5.29-5.3-5.29h0Z"/><path class="cls-1" d="M23.56,.31h-5.36c-.54,0-1,.19-1.38,.57s-.57,.84-.57,1.38V18.52L8.44,7.83,15.91,.31h-4.82L3.84,7.94V.31H1.95C1.41,.31,.95,.5,.57,.88s-.57,.84-.57,1.38V18.92H3.84v-6.55c0-.65,.35-1.09,1.06-1.33,.7-.23,1.47,.19,2.3,1.27l4.71,6.6h10.63c1.77,0,3.08-.13,3.95-.38,.9-.25,1.75-.68,2.54-1.3,.94-.72,1.69-1.77,2.27-3.14,.5-1.33,.76-2.83,.76-4.49,0-3.1-.7-5.45-2.11-7.03-1.41-1.52-3.54-2.27-6.38-2.27h-.01Zm3.41,13.87c-.83,.94-2.13,1.41-3.9,1.41h-3.08V3.56h3.57c1.59,0,2.74,.49,3.46,1.46,.76,.97,1.14,2.51,1.14,4.6s-.4,3.68-1.19,4.54h0Z"/><path class="cls-1" d="M65.27,4.23c-4.27,0-7.73,3.45-7.73,7.73s3.46,7.73,7.73,7.73,7.73-3.46,7.73-7.73-3.46-7.73-7.73-7.73Zm0,11.88c-2.3,0-4.15-1.86-4.15-4.15s1.86-4.15,4.15-4.15,4.15,1.86,4.15,4.15-1.86,4.15-4.15,4.15Z"/><path class="cls-1" d="M129.24,7.64v5.56c0,1.25,1.01,2.27,2.27,2.27h1.49v3.71h-2.21c-2.91,0-5.26-2.35-5.26-5.26V.31h3.71V4.51h3.76v1.4c0,.96-.78,1.73-1.73,1.73,0,0-2.03,0-2.03,0Z"/><path class="cls-1" d="M90.35,4.53h-1.89c-1.31,0-2.51,.47-3.43,1.27-.93-.79-2.13-1.27-3.44-1.27h-1.89c-2.92,0-5.29,2.37-5.29,5.29v9.33h3.71V10.17c0-.7,.28-1.33,.74-1.79s1.03-.71,1.68-.74c1.44-.06,2.63,1.2,2.63,2.64v8.85h3.71V10.17c0-.7,.28-1.33,.74-1.79,.44-.44,1.04-.72,1.71-.74,1.43-.04,2.61,1.21,2.61,2.65v6.59c0,1.25,1.01,2.27,2.27,2.27h1.44V9.82c0-2.92-2.37-5.29-5.3-5.29h0Z"/></svg>